<?xml version="1.0" encoding="iso-8859-1"?>
<!-- Uploaded to: SVG Repo, www.svgrepo.com, Generator: SVG Repo Mixer Tools -->
<svg version="1.1" id="Layer_1" xmlns="http://www.w3.org/2000/svg" xmlns:xlink="http://www.w3.org/1999/xlink" 
	 viewBox="0 0 511.999 511.999" xml:space="preserve">
<path style="fill:#BDBCBC;" d="M152.851,36.877v116.509c0,4.427-3.589,8.017-8.017,8.017H59.323c-4.427,0-8.017-3.589-8.017-8.017
	V36.877H152.851z"/>
<path style="fill:#A7A6A6;" d="M80.701,36.877v124.526H59.323c-4.427,0-8.017-3.589-8.017-8.017V36.877H80.701z"/>
<path style="fill:#E9E9E9;" d="M42.221,0h119.716c4.427,0,8.017,3.589,8.017,8.017v34.205c0,4.427-3.589,8.017-8.017,8.017H42.221
	c-4.427,0-8.017-3.589-8.017-8.017V8.017C34.204,3.59,37.794,0,42.221,0z"/>
<path style="fill:#6DDAE1;" d="M508.827,189.755L260.845,1.63c-2.865-2.173-6.826-2.173-9.689,0L3.172,189.755
	c-2.743,2.08-3.851,5.68-2.753,8.942c1.098,3.263,4.156,5.461,7.598,5.461h39.015v299.824c0,4.427,3.589,8.017,8.017,8.017h401.903
	c4.427,0,8.017-3.589,8.017-8.017V204.158h39.015c3.443,0,6.501-2.198,7.598-5.461C512.679,195.435,511.57,191.835,508.827,189.755z
	"/>
<path style="fill:#4FC4D4;" d="M3.172,189.755c-2.743,2.08-3.851,5.68-2.753,8.942c1.098,3.263,4.156,5.461,7.598,5.461h39.015
	v299.824c0,4.427,3.589,8.017,8.017,8.017h25.653v-381.06L3.172,189.755z"/>
<path style="fill:#FFD791;" d="M379.456,228.209c0-22.103-17.981-40.083-40.083-40.083H172.626
	c-22.103,0-40.083,17.981-40.083,40.083v100.12h246.914V228.209z"/>
<path style="fill:#E9E9E9;" d="M353.803,237.829c0-13.036-11.503-24.05-25.119-24.05H183.315c-13.616,0-25.119,11.014-25.119,24.05
	v90.5h195.607V237.829z"/>
<g>
	<path style="fill:#918F90;" d="M344.418,223.699c3.661-3.661,1.068-9.92-4.109-9.92H183.315c-13.616,0-25.119,11.014-25.119,24.05
		v90.5h81.592L344.418,223.699z"/>
	<polygon style="fill:#918F90;" points="353.803,280.584 306.06,328.328 353.803,328.328 	"/>
</g>
<path style="fill:#F8BE73;" d="M166.213,237.829c0-8.542,7.992-16.033,17.102-16.033h145.369c9.11,0,17.102,7.492,17.102,16.033
	v90.5h16.033v-90.5c0-17.382-15.174-32.067-33.136-32.067H183.315c-17.962,0-33.136,14.684-33.136,32.067v90.5h16.033V237.829z"/>
<path style="fill:#FFD791;" d="M396.559,340.442c0-13.036-11.503-24.05-25.119-24.05H140.559c-13.616,0-25.119,11.014-25.119,24.05
	v66.984h281.118V340.442z"/>
<path style="fill:#F8BE73;" d="M140.559,316.392c-13.616,0-25.119,11.014-25.119,24.05v78.029c0,4.427,3.589,8.017,8.017,8.017
	h43.825V316.392H140.559z"/>
<g>
	<path style="fill:#D3D2D2;" d="M166.213,342.045c-13.851,0-25.119,11.268-25.119,25.119s11.268,25.119,25.119,25.119
		c13.851,0,25.119-11.268,25.119-25.119S180.063,342.045,166.213,342.045z"/>
	<path style="fill:#D3D2D2;" d="M345.786,342.045c-13.851,0-25.119,11.268-25.119,25.119s11.268,25.119,25.119,25.119
		s25.119-11.268,25.119-25.119S359.637,342.045,345.786,342.045z"/>
</g>
<g>
	<path style="fill:#F4F4F4;" d="M345.786,350.062c-9.43,0-17.102,7.673-17.102,17.102s7.673,17.102,17.102,17.102
		s17.102-7.673,17.102-17.102S355.217,350.062,345.786,350.062z"/>
	<path style="fill:#F4F4F4;" d="M166.213,350.062c-9.43,0-17.102,7.673-17.102,17.102s7.673,17.102,17.102,17.102
		s17.102-7.673,17.102-17.102S175.643,350.062,166.213,350.062z"/>
</g>
<g>
	<path style="fill:#A7A6A6;" d="M132.542,433.08v36.698c0,4.427,3.589,8.017,8.017,8.017h51.307c4.427,0,8.017-3.589,8.017-8.017
		V433.08H132.542z"/>
	<path style="fill:#A7A6A6;" d="M312.116,433.08v36.698c0,4.427,3.589,8.017,8.017,8.017h51.307c4.427,0,8.017-3.589,8.017-8.017
		V433.08H312.116z"/>
</g>
<g>
	<rect x="132.542" y="433.083" style="fill:#918F90;" width="67.34" height="21.378"/>
	<rect x="312.116" y="433.083" style="fill:#918F90;" width="67.34" height="21.378"/>
</g>
<g>
	<path style="fill:#F8BE73;" d="M294.479,358.079h-76.96c-4.427,0-8.017-3.589-8.017-8.017s3.589-8.017,8.017-8.017h76.96
		c4.427,0,8.017,3.589,8.017,8.017S298.907,358.079,294.479,358.079z"/>
	<path style="fill:#F8BE73;" d="M294.479,392.283h-76.96c-4.427,0-8.017-3.589-8.017-8.017s3.589-8.017,8.017-8.017h76.96
		c4.427,0,8.017,3.589,8.017,8.017S298.907,392.283,294.479,392.283z"/>
</g>
<path style="fill:#E9E9E9;" d="M405.644,401.903h-299.29c-4.427,0-8.017,3.589-8.017,8.017v25.653c0,4.427,3.589,8.017,8.017,8.017
	h299.29c4.427,0,8.017-3.589,8.017-8.017V409.92C413.661,405.493,410.072,401.903,405.644,401.903z"/>
<rect x="141.094" y="401.903" style="fill:#D3D2D2;" width="136.284" height="41.687"/>
<path style="fill:#BDBCBC;" d="M106.355,401.903c-4.427,0-8.017,3.589-8.017,8.017v25.653c0,4.427,3.589,8.017,8.017,8.017h34.739
	v-41.687H106.355z"/>
<path style="fill:#D3D2D2;" d="M405.644,401.903h-94.062v41.687h94.062c4.427,0,8.017-3.589,8.017-8.017V409.92
	C413.661,405.493,410.072,401.903,405.644,401.903z"/>
</svg>